<svg width="248" height="107" viewBox="0 0 248 107" fill="none" xmlns="http://www.w3.org/2000/svg">
<path d="M54.5996 63.8572V5.34082H50.2717V32.4255H12.9843V5.34082H8.65625V63.8572H12.9843V36.438H50.2717V63.8572H54.5996Z" fill="white"/>
<path d="M85.1163 36.437L65.0575 59.6764L66.1395 62.1007H69.3024C71.9103 62.1007 74.324 62.3792 76.5435 62.9365C78.7629 63.4938 80.6772 64.3298 82.2863 65.4444C83.8955 66.5032 85.144 67.8408 86.0318 69.457C86.975 71.0174 87.4466 72.8287 87.4466 74.8907C87.4466 76.8412 87.0583 78.6245 86.2814 80.2407C85.5047 81.8011 84.4503 83.1665 83.1187 84.3368C81.8424 85.4514 80.3165 86.3431 78.541 87.0118C76.8208 87.625 74.9898 87.9314 73.0477 87.9314C69.2192 87.9314 65.8067 87.1234 62.8104 85.5072C59.8695 83.891 57.2339 81.5782 54.9034 78.5688L51.5742 81.3274C53.9602 84.4482 56.9287 86.984 60.4798 88.9345C64.031 90.8851 68.1927 91.8604 72.9645 91.8604C75.4615 91.8604 77.8473 91.4702 80.1224 90.6901C82.4529 89.8541 84.4782 88.6838 86.1982 87.1791C87.9738 85.6744 89.361 83.8631 90.3598 81.7454C91.414 79.6277 91.9411 77.287 91.9411 74.7234C91.9411 72.0484 91.3863 69.7078 90.2765 67.7015C89.1668 65.6952 87.6687 64.0232 85.7821 62.6858C83.8955 61.2925 81.7037 60.2337 79.2068 59.5092C76.7099 58.729 74.0743 58.2552 71.3 58.0881L91.0256 35.4338V32.3408H54.5705V36.437H85.1163Z" fill="white"/>
<path d="M117.999 50H118.714V42.9198H128.777V50H129.492V35.2933H128.777V42.2685H118.714V35.2933H117.999V50ZM141.15 50.2521C143.713 50.2521 145.919 48.5503 145.919 46.1132C145.919 46.0922 145.919 46.0712 145.919 46.0712C145.919 43.319 143.587 42.0374 140.288 41.9743L145.688 35.7975V35.2933H136.611V35.9656H144.721L139.259 42.2054L139.469 42.6256H140.078C143.082 42.6256 145.204 43.6971 145.204 46.0922V46.1342C145.204 48.1722 143.356 49.6008 141.171 49.6008C139.133 49.6008 137.494 48.6344 136.38 47.1637L135.834 47.6259C136.99 49.1596 138.817 50.2521 141.15 50.2521ZM152.797 50H153.491V34.663H152.797V50ZM161.232 50H161.925V34.663H161.232V50ZM172.922 50.1891C173.511 50.1891 174.057 50.084 174.582 49.8319V49.1806C174.036 49.4327 173.511 49.5588 172.985 49.5588C171.599 49.5588 170.779 48.7814 170.779 47.2267V40.0204H174.624V39.4112H170.779V35.8605H170.107V39.4112H168.489V40.0204H170.107V47.2898C170.107 49.2016 171.221 50.1891 172.922 50.1891ZM181.175 50H181.847V44.9787C181.847 42.3735 183.675 39.8944 186.238 39.8944C186.259 39.8944 186.322 39.8944 186.343 39.8944V39.2011C184.095 39.138 182.477 40.8398 181.847 42.6466V39.4112H181.175V50ZM196.531 50.2521C199.788 50.2521 202.015 47.6679 202.015 44.7056V44.6636C202.015 41.7012 199.788 39.1591 196.552 39.1591C193.296 39.1591 191.048 41.7432 191.048 44.7056V44.7476C191.048 47.71 193.296 50.2521 196.531 50.2521ZM196.552 49.6218C193.8 49.6218 191.783 47.3948 191.783 44.7266V44.6846C191.783 42.0164 193.716 39.7893 196.51 39.7893C199.263 39.7893 201.3 42.0164 201.3 44.6846V44.7266C201.3 47.3948 199.347 49.6218 196.552 49.6218ZM208.732 50H209.405V44.0333C209.405 41.6172 211.17 39.7893 213.397 39.7893C215.855 39.7893 217.178 41.4491 217.178 43.9072V50H217.851V43.8022C217.851 41.0499 216.275 39.1591 213.481 39.1591C211.212 39.1591 209.888 40.6717 209.405 41.9323V39.4112H208.732V50ZM225.148 36.4908H226.052V35.2093H225.148V36.4908ZM225.253 50H225.947V39.4112H225.253V50ZM233.562 50H234.234V47.0587L236.839 44.5585L241.587 50H242.428L237.301 44.0963L242.175 39.4112H241.272L234.234 46.2603V34.663H233.562V50Z" fill="white"/>
<path d="M126.19 65.0121C126.19 63.9756 126.001 63.0092 125.623 62.1128C125.244 61.2164 124.705 60.439 124.005 59.7807C123.319 59.1224 122.492 58.6112 121.526 58.247C120.573 57.8689 119.523 57.6798 118.374 57.6798H112.891V72.3865H118.374C119.523 72.3865 120.573 72.1974 121.526 71.8192C122.492 71.441 123.319 70.9228 124.005 70.2645C124.705 69.6062 125.244 68.8289 125.623 67.9324C126.001 67.022 126.19 66.0486 126.19 65.0121ZM123.48 65.0541C123.48 65.7825 123.354 66.4548 123.102 67.071C122.863 67.6733 122.52 68.1986 122.072 68.6468C121.638 69.081 121.106 69.4241 120.475 69.6762C119.845 69.9143 119.145 70.0334 118.374 70.0334H115.475V60.0328H118.374C119.145 60.0328 119.845 60.1589 120.475 60.411C121.106 60.6631 121.638 61.0133 122.072 61.4615C122.52 61.9097 122.863 62.4419 123.102 63.0582C123.354 63.6605 123.48 64.3258 123.48 65.0541ZM134.535 67.7434H142.687C142.701 67.6173 142.708 67.4982 142.708 67.3862C142.722 67.2741 142.729 67.1621 142.729 67.05C142.729 66.2517 142.617 65.4883 142.393 64.76C142.169 64.0317 141.833 63.3944 141.385 62.8481C140.95 62.3019 140.397 61.8677 139.725 61.5455C139.067 61.2234 138.296 61.0623 137.414 61.0623C136.615 61.0623 135.887 61.2164 135.229 61.5245C134.571 61.8327 133.996 62.2529 133.506 62.7851C133.03 63.3033 132.659 63.9126 132.393 64.6129C132.126 65.3132 131.993 66.0626 131.993 66.861C131.993 67.7293 132.14 68.5207 132.435 69.235C132.729 69.9354 133.128 70.5376 133.632 71.0419C134.15 71.5461 134.753 71.9383 135.439 72.2184C136.139 72.4985 136.889 72.6386 137.687 72.6386C138.709 72.6386 139.585 72.4495 140.313 72.0713C141.055 71.6932 141.693 71.1889 142.225 70.5586L140.733 69.235C140.285 69.6692 139.83 69.9984 139.368 70.2225C138.905 70.4466 138.359 70.5586 137.729 70.5586C136.903 70.5586 136.202 70.3205 135.628 69.8443C135.054 69.3541 134.69 68.6538 134.535 67.7434ZM134.514 66.0626C134.627 65.1942 134.935 64.4939 135.439 63.9616C135.957 63.4154 136.608 63.1423 137.393 63.1423C137.813 63.1423 138.184 63.2193 138.506 63.3734C138.842 63.5274 139.13 63.7375 139.368 64.0037C139.606 64.2558 139.795 64.5639 139.935 64.9281C140.075 65.2782 140.166 65.6564 140.208 66.0626H134.514ZM152.985 69.4451L150.001 61.2934H147.27L151.829 72.4705H154.119L158.657 61.2934H155.989L152.985 69.4451ZM165.684 67.7434H173.836C173.85 67.6173 173.857 67.4982 173.857 67.3862C173.871 67.2741 173.878 67.1621 173.878 67.05C173.878 66.2517 173.766 65.4883 173.541 64.76C173.317 64.0317 172.981 63.3944 172.533 62.8481C172.099 62.3019 171.546 61.8677 170.873 61.5455C170.215 61.2234 169.445 61.0623 168.562 61.0623C167.764 61.0623 167.035 61.2164 166.377 61.5245C165.719 61.8327 165.145 62.2529 164.654 62.7851C164.178 63.3033 163.807 63.9126 163.541 64.6129C163.275 65.3132 163.142 66.0626 163.142 66.861C163.142 67.7293 163.289 68.5207 163.583 69.235C163.877 69.9354 164.276 70.5376 164.78 71.0419C165.299 71.5461 165.901 71.9383 166.587 72.2184C167.288 72.4985 168.037 72.6386 168.835 72.6386C169.858 72.6386 170.733 72.4495 171.461 72.0713C172.204 71.6932 172.841 71.1889 173.373 70.5586L171.882 69.235C171.433 69.6692 170.978 69.9984 170.516 70.2225C170.054 70.4466 169.508 70.5586 168.877 70.5586C168.051 70.5586 167.351 70.3205 166.776 69.8443C166.202 69.3541 165.838 68.6538 165.684 67.7434ZM165.663 66.0626C165.775 65.1942 166.083 64.4939 166.587 63.9616C167.105 63.4154 167.757 63.1423 168.541 63.1423C168.961 63.1423 169.333 63.2193 169.655 63.3734C169.991 63.5274 170.278 63.7375 170.516 64.0037C170.754 64.2558 170.943 64.5639 171.083 64.9281C171.223 65.2782 171.314 65.6564 171.356 66.0626H165.663ZM182.691 72.3865V57.0495H180.149V72.3865H182.691ZM200.804 66.8399C200.804 66.0416 200.657 65.2922 200.363 64.5919C200.069 63.8916 199.656 63.2823 199.124 62.7641C198.605 62.2318 197.982 61.8187 197.254 61.5245C196.54 61.2164 195.755 61.0623 194.901 61.0623C194.046 61.0623 193.255 61.2164 192.527 61.5245C191.812 61.8327 191.189 62.2529 190.657 62.7851C190.139 63.3033 189.725 63.9196 189.417 64.6339C189.123 65.3343 188.976 66.0836 188.976 66.882C188.976 67.6803 189.123 68.4297 189.417 69.13C189.711 69.8163 190.118 70.4256 190.636 70.9578C191.168 71.4761 191.791 71.8892 192.506 72.1974C193.234 72.4915 194.018 72.6386 194.859 72.6386C195.713 72.6386 196.505 72.4845 197.233 72.1764C197.961 71.8682 198.584 71.455 199.103 70.9368C199.635 70.4046 200.048 69.7883 200.342 69.088C200.65 68.3877 200.804 67.6383 200.804 66.8399ZM198.262 66.882C198.262 67.3722 198.185 67.8344 198.031 68.2686C197.877 68.6888 197.653 69.06 197.359 69.3821C197.065 69.7043 196.708 69.9634 196.287 70.1595C195.881 70.3415 195.419 70.4326 194.901 70.4326C194.411 70.4326 193.955 70.3415 193.535 70.1595C193.129 69.9634 192.772 69.7043 192.464 69.3821C192.17 69.06 191.938 68.6818 191.77 68.2476C191.602 67.7994 191.518 67.3302 191.518 66.8399C191.518 66.3497 191.595 65.8945 191.749 65.4743C191.903 65.0401 192.128 64.662 192.422 64.3398C192.716 64.0177 193.066 63.7655 193.472 63.5835C193.892 63.3874 194.355 63.2893 194.859 63.2893C195.363 63.2893 195.818 63.3874 196.224 63.5835C196.645 63.7655 197.002 64.0247 197.296 64.3608C197.604 64.683 197.842 65.0611 198.01 65.4953C198.178 65.9295 198.262 66.3917 198.262 66.882ZM218.436 66.8399C218.436 65.9155 218.289 65.0961 217.995 64.3818C217.701 63.6675 217.309 63.0652 216.819 62.575C216.342 62.0708 215.796 61.6926 215.18 61.4405C214.564 61.1884 213.926 61.0623 213.268 61.0623C212.372 61.0623 211.622 61.2654 211.02 61.6716C210.418 62.0638 209.913 62.554 209.507 63.1423V61.2934H206.965V75.748H209.507V70.6637C209.899 71.1819 210.397 71.6371 210.999 72.0293C211.601 72.4215 212.358 72.6176 213.268 72.6176C213.926 72.6176 214.564 72.4915 215.18 72.2394C215.81 71.9873 216.363 71.6161 216.84 71.1259C217.33 70.6217 217.715 70.0124 217.995 69.2981C218.289 68.5837 218.436 67.7644 218.436 66.8399ZM215.852 66.8399C215.852 67.3862 215.768 67.8834 215.6 68.3316C215.432 68.7658 215.201 69.137 214.907 69.4451C214.627 69.7533 214.29 69.9914 213.898 70.1595C213.52 70.3275 213.114 70.4116 212.68 70.4116C212.245 70.4116 211.832 70.3275 211.44 70.1595C211.048 69.9914 210.705 69.7533 210.411 69.4451C210.116 69.123 209.878 68.7448 209.696 68.3106C209.528 67.8764 209.444 67.3862 209.444 66.8399C209.444 66.2937 209.528 65.8035 209.696 65.3693C209.878 64.9351 210.116 64.5639 210.411 64.2558C210.705 63.9336 211.048 63.6885 211.44 63.5204C211.832 63.3524 212.245 63.2683 212.68 63.2683C213.114 63.2683 213.52 63.3524 213.898 63.5204C214.29 63.6885 214.627 63.9266 214.907 64.2348C215.201 64.5429 215.432 64.9211 215.6 65.3693C215.768 65.8035 215.852 66.2937 215.852 66.8399ZM226.544 67.7434H234.696C234.71 67.6173 234.717 67.4982 234.717 67.3862C234.731 67.2741 234.738 67.1621 234.738 67.05C234.738 66.2517 234.626 65.4883 234.402 64.76C234.178 64.0317 233.842 63.3944 233.393 62.8481C232.959 62.3019 232.406 61.8677 231.734 61.5455C231.075 61.2234 230.305 61.0623 229.423 61.0623C228.624 61.0623 227.896 61.2164 227.238 61.5245C226.579 61.8327 226.005 62.2529 225.515 62.7851C225.039 63.3033 224.667 63.9126 224.401 64.6129C224.135 65.3132 224.002 66.0626 224.002 66.861C224.002 67.7293 224.149 68.5207 224.443 69.235C224.738 69.9354 225.137 70.5376 225.641 71.0419C226.159 71.5461 226.761 71.9383 227.448 72.2184C228.148 72.4985 228.897 72.6386 229.696 72.6386C230.718 72.6386 231.594 72.4495 232.322 72.0713C233.064 71.6932 233.702 71.1889 234.234 70.5586L232.742 69.235C232.294 69.6692 231.839 69.9984 231.377 70.2225C230.914 70.4466 230.368 70.5586 229.738 70.5586C228.911 70.5586 228.211 70.3205 227.637 69.8443C227.063 69.3541 226.698 68.6538 226.544 67.7434ZM226.523 66.0626C226.635 65.1942 226.944 64.4939 227.448 63.9616C227.966 63.4154 228.617 63.1423 229.402 63.1423C229.822 63.1423 230.193 63.2193 230.515 63.3734C230.851 63.5274 231.138 63.7375 231.377 64.0037C231.615 64.2558 231.804 64.5639 231.944 64.9281C232.084 65.2782 232.175 65.6564 232.217 66.0626H226.523ZM243.405 68.1635C243.405 67.4352 243.496 66.7979 243.678 66.2517C243.86 65.6914 244.119 65.2292 244.455 64.865C244.791 64.5009 245.191 64.2278 245.653 64.0457C246.115 63.8636 246.626 63.7725 247.187 63.7725H247.334V61.0833C246.353 61.0413 245.541 61.2724 244.897 61.7766C244.252 62.2809 243.755 62.9532 243.405 63.7936V61.2934H240.863V72.3865H243.405V68.1635Z" fill="white"/>
</svg>
