<svg width="786" height="117" viewBox="0 0 786 117" fill="none" xmlns="http://www.w3.org/2000/svg">
<path d="M14.0481 2.16148V0.513352H25.693V2.16148H14.0481ZM86.4577 2.16148V0.513352H98.1027V2.16148H86.4577ZM122.663 2.16148V0.513352H134.308V2.16148H122.663ZM140.765 2.16148V0.513352H152.41V2.16148H140.765ZM158.867 2.16148V0.513352H170.512V2.16148H158.867ZM176.97 2.16148V0.513352H188.615V2.16148H176.97ZM195.072 2.16148V0.513352H206.717V2.16148H195.072ZM231.277 2.16148V0.513352H242.922V2.16148H231.277ZM267.482 2.16148V0.513352H279.127V2.16148H267.482ZM303.687 2.16148V0.513352H315.332V2.16148H303.687ZM665.735 2.16148V0.513352H677.38V2.16148H665.735ZM701.94 2.16148V0.513352H713.585V2.16148H701.94ZM0.86302 32.0798V10.3839H2.67326V32.0798H0.86302ZM37.0678 32.0798V10.3839H38.8781V32.0798H37.0678ZM73.2727 32.0798V10.3839H75.0829V32.0798H73.2727ZM109.477 32.0798V10.3839H111.288V32.0798H109.477ZM122.663 30.1615V28.5134H134.308V30.1615H122.663ZM140.765 30.1615V28.5134H152.41V30.1615H140.765ZM158.867 30.1615V28.5134H170.512V30.1615H158.867ZM197.45 29.1348L195.856 28.3512L204.313 10.0327L205.934 10.8703L197.45 29.1348ZM218.092 32.0798V10.3839H219.902V32.0798H218.092ZM254.297 32.0798V10.3839H256.107V32.0798H254.297ZM290.502 32.0798V10.3839H292.312V32.0798H290.502ZM326.706 32.0798V10.3839H328.517V32.0798H326.706ZM339.891 30.1615V28.5134H351.536V30.1615H339.891ZM376.096 30.1615V28.5134H387.741V30.1615H376.096ZM412.301 30.1615V28.5134H423.946V30.1615H412.301ZM430.404 30.1615V28.5134H442.049V30.1615H430.404ZM466.608 30.1615V28.5134H478.253V30.1615H466.608ZM484.711 30.1615V28.5134H496.356V30.1615H484.711ZM502.813 30.1615V28.5134H514.458V30.1615H502.813ZM557.12 30.1615V28.5134H568.765V30.1615H557.12ZM593.325 30.1615V28.5134H604.97V30.1615H593.325ZM611.428 30.1615V28.5134H623.073V30.1615H611.428ZM657.359 30.8099C655.864 30.1074 654.558 29.1708 653.441 28C652.343 26.8112 651.487 25.4783 650.875 24.0013C650.28 22.5062 649.983 20.9572 649.983 19.3541C649.983 17.751 650.28 16.2289 650.875 14.7879C651.469 13.3289 652.307 12.0321 653.387 10.8973C654.468 9.74448 655.738 8.82585 657.197 8.14138L657.71 9.81653C656.558 10.447 655.54 11.2575 654.657 12.2482C653.793 13.2389 653.117 14.3466 652.631 15.5715C652.145 16.7963 651.901 18.0842 651.901 19.4351C651.901 20.7861 652.145 22.0829 652.631 23.3258C653.117 24.5686 653.811 25.6944 654.711 26.7031C655.612 27.7118 656.666 28.5404 657.872 29.1888L657.359 30.8099ZM665.735 30.1615V28.5134H677.38V30.1615H665.735ZM686.485 30.8099L685.972 29.1888C687.197 28.5404 688.25 27.7118 689.133 26.7031C690.033 25.6944 690.727 24.5686 691.213 23.3258C691.7 22.0829 691.943 20.7861 691.943 19.4351C691.943 18.0842 691.7 16.7963 691.213 15.5715C690.727 14.3466 690.052 13.2389 689.187 12.2482C688.322 11.2575 687.305 10.447 686.134 9.81653L686.647 8.14138C688.106 8.82585 689.376 9.74448 690.457 10.8973C691.538 12.0321 692.375 13.3289 692.97 14.7879C693.564 16.2289 693.861 17.751 693.861 19.3541C693.861 20.9572 693.555 22.5062 692.942 24.0013C692.348 25.4783 691.492 26.8112 690.376 28C689.277 29.1708 687.98 30.1074 686.485 30.8099ZM724.959 32.0798V10.3839H726.77V32.0798H724.959ZM756.247 30.1615V28.5134H767.892V30.1615H756.247ZM774.349 30.1615V28.5134H785.994V30.1615H774.349ZM0.86302 60.0798V38.3839H2.67326V60.0798H0.86302ZM37.0678 60.0798V38.3839H38.8781V60.0798H37.0678ZM50.2529 58.1615V56.5134H61.8979V58.1615H50.2529ZM73.2727 60.0798V38.3839H75.0829V60.0798H73.2727ZM109.477 60.0798V38.3839H111.288V60.0798H109.477ZM145.682 60.0798V38.3839H147.493V60.0798H145.682ZM158.867 58.1615V56.5134H170.512V58.1615H158.867ZM204.34 57.1348L195.856 38.8703L197.45 38.0327L205.934 56.3512L204.34 57.1348ZM218.092 60.0798V38.3839H219.902V60.0798H218.092ZM254.297 60.0798V38.3839H256.107V60.0798H254.297ZM290.502 60.0798V38.3839H292.312V60.0798H290.502ZM321.789 58.1615V56.5134H333.434V58.1615H321.789ZM339.891 58.1615V56.5134H351.536V58.1615H339.891ZM362.911 60.0798V38.3839H364.721V60.0798H362.911ZM398.927 38.0327H401.088C401.088 39.1134 401.079 39.978 401.061 40.6265C401.043 41.2749 401.007 41.8243 400.953 42.2746C400.917 42.7069 400.872 43.1302 400.818 43.5445C400.764 43.9407 400.71 44.4271 400.656 45.0035H399.359C399.305 44.4271 399.251 43.9407 399.197 43.5445C399.143 43.1302 399.089 42.7069 399.035 42.2746C398.999 41.8423 398.972 41.3019 398.954 40.6535C398.936 39.987 398.927 39.1134 398.927 38.0327ZM412.301 58.1615V56.5134H423.946V58.1615H412.301ZM430.404 58.1615V56.5134H442.049V58.1615H430.404ZM450.884 57.1348L449.289 56.3512L457.746 38.0327L459.367 38.8703L450.884 57.1348ZM484.711 58.1615V56.5134H496.356V58.1615H484.711ZM530.183 57.1348L521.699 38.8703L523.293 38.0327L531.777 56.3512L530.183 57.1348ZM543.935 60.0798V38.3839H545.746V60.0798H543.935ZM579.951 38.0327H582.113C582.113 39.1134 582.104 39.978 582.086 40.6265C582.068 41.2749 582.031 41.8243 581.977 42.2746C581.941 42.7069 581.896 43.1302 581.842 43.5445C581.788 43.9407 581.734 44.4271 581.68 45.0035H580.383C580.329 44.4271 580.275 43.9407 580.221 43.5445C580.167 43.1302 580.113 42.7069 580.059 42.2746C580.023 41.8423 579.996 41.3019 579.978 40.6535C579.96 39.987 579.951 39.1134 579.951 38.0327ZM593.325 58.1615V56.5134H604.97V58.1615H593.325ZM638.797 57.1348L630.314 38.8703L631.908 38.0327L640.392 56.3512L638.797 57.1348ZM652.55 60.0798V38.3839H654.36V60.0798H652.55ZM688.755 60.0798V38.3839H690.565V60.0798H688.755ZM724.959 60.0798V38.3839H726.77V60.0798H724.959ZM740.522 57.1348L738.928 56.3512L747.385 38.0327L749.006 38.8703L740.522 57.1348ZM776.727 57.1348L775.133 56.3512L783.59 38.0327L785.211 38.8703L776.727 57.1348ZM0.86302 88.0798V66.3839H2.67326V88.0798H0.86302ZM50.2529 86.1615V84.5134H61.8979V86.1615H50.2529ZM109.477 88.0798V66.3839H111.288V88.0798H109.477ZM122.663 86.1615V84.5134H134.308V86.1615H122.663ZM140.765 86.1615V84.5134H152.41V86.1615H140.765ZM158.867 86.1615V84.5134H170.512V86.1615H158.867ZM179.618 86.8099L179.104 85.1888C180.329 84.5404 181.383 83.7118 182.265 82.7031C183.166 81.6944 183.859 80.5686 184.346 79.3258C184.832 78.0829 185.075 76.7861 185.075 75.4351C185.075 74.0842 184.832 72.7963 184.346 71.5715C183.859 70.3466 183.184 69.2389 182.319 68.2482C181.455 67.2575 180.437 66.447 179.266 65.8165L179.78 64.1414C181.239 64.8259 182.509 65.7445 183.589 66.8973C184.67 68.0321 185.508 69.3289 186.102 70.7879C186.696 72.2289 186.994 73.751 186.994 75.3541C186.994 76.9572 186.687 78.5062 186.075 80.0013C185.481 81.4783 184.625 82.8112 183.508 84C182.409 85.1708 181.113 86.1074 179.618 86.8099ZM218.092 88.0798V66.3839H219.902V88.0798H218.092ZM254.297 88.0798V66.3839H256.107V88.0798H254.297ZM290.502 88.0798V66.3839H292.312V88.0798H290.502ZM326.706 88.0798V66.3839H328.517V88.0798H326.706ZM339.891 86.1615V84.5134H351.536V86.1615H339.891ZM362.911 88.0798V66.3839H364.721V88.0798H362.911ZM399.116 88.0798V66.3839H400.926V88.0798H399.116ZM435.321 88.0798V66.3839H437.131V88.0798H435.321ZM476.335 86.8099C474.84 86.1074 473.534 85.1708 472.417 84C471.319 82.8112 470.463 81.4783 469.851 80.0013C469.256 78.5062 468.959 76.9572 468.959 75.3541C468.959 73.751 469.256 72.2289 469.851 70.7879C470.445 69.3289 471.283 68.0321 472.363 66.8973C473.444 65.7445 474.714 64.8259 476.173 64.1414L476.686 65.8165C475.533 66.447 474.516 67.2575 473.633 68.2482C472.769 69.2389 472.093 70.3466 471.607 71.5715C471.12 72.7963 470.877 74.0842 470.877 75.4351C470.877 76.7861 471.12 78.0829 471.607 79.3258C472.093 80.5686 472.787 81.6944 473.687 82.7031C474.588 83.7118 475.642 84.5404 476.848 85.1888L476.335 86.8099ZM484.711 86.1615V84.5134H496.356V86.1615H484.711ZM505.461 86.8099L504.948 85.1888C506.172 84.5404 507.226 83.7118 508.109 82.7031C509.009 81.6944 509.703 80.5686 510.189 79.3258C510.676 78.0829 510.919 76.7861 510.919 75.4351C510.919 74.0842 510.676 72.7963 510.189 71.5715C509.703 70.3466 509.027 69.2389 508.163 68.2482C507.298 67.2575 506.281 66.447 505.11 65.8165L505.623 64.1414C507.082 64.8259 508.352 65.7445 509.433 66.8973C510.513 68.0321 511.351 69.3289 511.945 70.7879C512.54 72.2289 512.837 73.751 512.837 75.3541C512.837 76.9572 512.531 78.5062 511.918 80.0013C511.324 81.4783 510.468 82.8112 509.352 84C508.253 85.1708 506.956 86.1074 505.461 86.8099ZM543.935 88.0798V66.3839H545.746V88.0798H543.935ZM580.14 88.0798V66.3839H581.95V88.0798H580.14ZM616.345 88.0798V66.3839H618.155V88.0798H616.345ZM652.55 88.0798V66.3839H654.36V88.0798H652.55ZM688.755 88.0798V66.3839H690.565V88.0798H688.755ZM767.757 82.7301L756.247 76.0025V74.7056L767.676 68.6805V70.5988L758.3 75.3811L767.757 80.6767V82.7301ZM0.86302 116.08V94.3839H2.67326V116.08H0.86302ZM14.0481 114.161V112.513H25.693V114.161H14.0481ZM37.0678 116.08V94.3839H38.8781V116.08H37.0678ZM73.2727 116.08V94.3839H75.0829V116.08H73.2727ZM86.4577 114.161V112.513H98.1027V114.161H86.4577ZM109.477 116.08V94.3839H111.288V116.08H109.477ZM122.663 114.161V112.513H134.308V114.161H122.663ZM140.765 114.161V112.513H152.41V114.161H140.765ZM158.867 114.161V112.513H170.512V114.161H158.867ZM176.97 114.161V112.513H188.615V114.161H176.97ZM197.45 113.135L195.856 112.351L204.313 94.0327L205.934 94.8703L197.45 113.135ZM218.092 116.08V94.3839H219.902V116.08H218.092ZM231.277 114.161V112.513H242.922V114.161H231.277ZM254.297 116.08V94.3839H256.107V116.08H254.297ZM267.482 114.161V112.513H279.127V114.161H267.482ZM290.502 116.08V94.3839H292.312V116.08H290.502ZM312.954 113.135L304.47 94.8703L306.064 94.0327L314.548 112.351L312.954 113.135ZM321.789 114.161V112.513H333.434V114.161H321.789ZM339.891 114.161V112.513H351.536V114.161H339.891ZM362.911 116.08V94.3839H364.721V116.08H362.911ZM376.096 114.161V112.513H387.741V114.161H376.096ZM399.116 116.08V94.3839H400.926V116.08H399.116ZM457.773 113.135L449.289 94.8703L450.884 94.0327L459.367 112.351L457.773 113.135ZM466.608 114.161V112.513H478.253V114.161H466.608ZM484.711 114.161V112.513H496.356V114.161H484.711ZM502.813 114.161V112.513H514.458V114.161H502.813ZM523.293 113.135L521.699 112.351L530.156 94.0327L531.777 94.8703L523.293 113.135ZM543.935 116.08V94.3839H545.746V116.08H543.935ZM557.12 114.161V112.513H568.765V114.161H557.12ZM580.14 116.08V94.3839H581.95V116.08H580.14ZM616.345 116.08V94.3839H618.155V116.08H616.345ZM629.53 114.161V112.513H641.175V114.161H629.53ZM652.55 116.08V94.3839H654.36V116.08H652.55ZM665.735 114.161V112.513H677.38V114.161H665.735ZM688.755 116.08V94.3839H690.565V116.08H688.755ZM701.94 114.161V112.513H713.585V114.161H701.94ZM724.959 116.08V94.3839H726.77V116.08H724.959ZM747.412 113.135L738.928 94.8703L740.522 94.0327L749.006 112.351L747.412 113.135ZM756.247 114.161V112.513H767.892V114.161H756.247ZM783.617 113.135L775.133 94.8703L776.727 94.0327L785.211 112.351L783.617 113.135Z" fill="white"/>
</svg>
