<?xml version="1.0" standalone="no"?>
<!DOCTYPE svg PUBLIC "-//W3C//DTD SVG 20010904//EN"
 "http://www.w3.org/TR/2001/REC-SVG-20010904/DTD/svg10.dtd">
<svg version="1.0" xmlns="http://www.w3.org/2000/svg"
 width="749.000000pt" height="749.000000pt" viewBox="0 0 749.000000 749.000000"
 preserveAspectRatio="xMidYMid meet">
<metadata>
Created by potrace 1.14, written by Peter Selinger 2001-2017
</metadata>
<g transform="translate(0.000000,749.000000) scale(0.100000,-0.100000)"
fill="#000000" stroke="none">
<path d="M910 7081 c-1 -47 -1 -4032 0 -4049 0 -10 34 -12 152 -10 l152 3 0
958 0 957 1310 -2 1310 -3 0 -957 0 -958 153 0 152 0 0 956 c0 526 2 958 4
960 2 2 484 3 1071 2 l1068 -3 -24 -26 c-12 -14 -45 -52 -73 -84 -27 -32 -57
-66 -65 -75 -14 -15 -115 -132 -151 -175 -10 -11 -30 -34 -46 -52 -15 -17 -47
-53 -69 -80 -23 -26 -52 -59 -64 -73 -12 -14 -43 -50 -68 -80 -26 -30 -65 -74
-87 -99 -65 -73 -68 -77 -107 -123 -20 -24 -47 -55 -60 -69 -13 -14 -45 -52
-73 -85 -27 -32 -54 -64 -60 -70 -10 -11 -75 -85 -164 -188 -24 -28 -55 -64
-70 -81 -14 -16 -57 -66 -95 -110 -38 -44 -72 -82 -75 -85 -3 -3 -18 -21 -33
-41 -24 -32 -25 -37 -12 -60 7 -13 25 -49 39 -80 l26 -56 152 -1 c226 -2 350
-10 467 -33 435 -85 728 -298 836 -607 30 -87 38 -143 37 -262 0 -124 -9 -177
-44 -280 -67 -193 -210 -364 -394 -472 -82 -49 -265 -125 -265 -111 0 3 -6 0
-13 -6 -8 -6 -16 -8 -19 -6 -3 3 -18 1 -33 -5 -35 -13 -127 -23 -230 -23 -86
-1 -255 10 -277 18 -7 2 -26 6 -43 9 -55 8 -124 26 -200 51 -273 92 -515 272
-755 562 -8 10 -38 -9 -123 -79 -62 -50 -113 -93 -115 -94 -33 -22 377 -413
459 -439 11 -4 19 -10 19 -15 0 -4 8 -10 18 -14 9 -3 31 -15 47 -26 56 -38
250 -129 329 -155 214 -69 357 -90 611 -90 151 0 259 7 305 20 8 2 26 6 40 9
158 30 388 130 505 218 103 78 198 167 244 228 14 19 28 37 31 40 12 12 60 87
71 113 7 15 16 27 21 27 4 0 8 5 8 10 0 6 9 29 19 53 42 91 70 174 87 262 17
84 22 250 11 350 -18 164 -60 279 -155 425 -103 160 -290 317 -492 412 -78 37
-188 80 -210 83 -3 0 -11 4 -17 8 -7 5 -13 6 -13 2 0 -3 -16 1 -35 9 -19 8
-35 13 -35 10 0 -3 -8 0 -17 5 -10 5 -31 11 -48 14 -16 3 -41 8 -55 11 -25 6
-102 20 -170 31 -19 3 -69 8 -110 11 -41 3 -76 7 -78 9 -3 3 93 118 153 184
58 64 76 85 112 128 17 21 50 58 72 82 23 24 41 45 41 47 0 2 8 12 18 22 20
21 121 136 181 206 23 27 48 54 55 61 6 7 28 32 47 55 18 23 39 47 45 54 38
41 121 135 237 270 10 12 40 46 67 76 27 30 57 64 67 76 10 12 44 50 75 85 71
80 90 102 142 163 22 27 47 55 54 62 9 10 12 44 10 121 l-3 108 -1272 0 c-700
0 -1275 3 -1278 7 -3 3 -7 428 -8 944 l-2 939 -140 1 c-77 0 -145 -1 -151 -3
-7 -2 -10 -296 -10 -946 l0 -942 -1310 -2 -1310 -3 0 928 c1 510 0 936 -2 947
-3 20 -10 21 -153 21 l-149 1 0 -36z"/>
</g>
</svg>
